<svg version="1.0" xmlns="http://www.w3.org/2000/svg"
 width="512pt" height="512pt" viewBox="0 0 512 512"
 preserveAspectRatio="xMidYMid meet" class="pfy-icon-close">

<g transform="translate(0,512) scale(0.1,-0.1)"
fill="currentColor" stroke="none">
<path d="M3743 3888 l-281 -281 -98 37 c-122 47 -324 99 -474 122 -158 25
-490 25 -650 1 -319 -48 -621 -156 -893 -318 -302 -181 -612 -492 -794 -796
l-55 -92 42 -73 c177 -312 479 -615 815 -817 l106 -65 -255 -255 -256 -256 73
-73 72 -72 1538 1538 1537 1537 -73 73 -72 72 -282 -282z m-1021 -422 c130
-26 266 -83 362 -153 l49 -35 -110 -110 -109 -109 -60 36 c-83 50 -143 67
-263 73 -128 5 -188 -7 -301 -60 -119 -57 -221 -159 -278 -278 -54 -114 -66
-174 -60 -306 6 -118 26 -189 79 -274 l28 -45 -107 -107 c-59 -60 -110 -108
-114 -108 -11 0 -84 116 -116 183 -188 397 -68 862 292 1132 98 73 265 143
393 165 79 13 236 11 315 -4z m-877 -38 c-340 -285 -485 -731 -374 -1153 36
-137 81 -236 166 -359 l54 -79 -39 -40 -40 -40 -79 42 c-252 136 -494 342
-674 577 -89 115 -122 171 -115 197 10 41 168 240 280 356 181 185 363 319
582 427 102 50 255 112 279 113 6 1 -12 -18 -40 -41z m715 -557 c0 -51 -8 -61
-53 -61 -41 0 -127 -59 -158 -108 -16 -26 -32 -57 -34 -69 -16 -78 -11 -73
-66 -73 l-51 0 7 48 c20 139 128 262 264 298 85 23 91 21 91 -35z"/>
<path d="M3772 3327 l-73 -73 68 -46 c113 -75 212 -159 333 -284 117 -121 280
-332 280 -364 0 -9 -23 -50 -52 -91 -203 -290 -454 -514 -768 -682 -83 -45
-301 -137 -323 -137 -7 0 13 21 43 47 237 205 370 458 401 764 18 183 -19 399
-96 567 l-36 76 -75 -75 -76 -76 30 -89 c42 -123 56 -223 49 -352 -7 -134 -34
-241 -92 -357 -89 -180 -240 -331 -420 -420 -116 -57 -223 -85 -357 -92 -129
-7 -229 7 -352 49 l-89 30 -143 -143 c-165 -164 -165 -145 1 -184 193 -46 316
-59 535 -59 300 0 551 44 810 142 329 124 594 295 846 547 147 147 251 278
348 439 l59 96 -58 96 c-121 203 -317 432 -507 590 -75 62 -200 154 -210 154
-2 0 -36 -33 -76 -73z"/>
<path d="M2781 2337 l-373 -374 32 -7 c60 -11 211 -6 274 10 102 26 193 80
276 164 128 127 181 257 179 436 -2 171 34 192 -388 -229z"/>
</g>
</svg>
