<svg version="1.0" xmlns="http://www.w3.org/2000/svg"
 width="512pt" height="512pt" viewBox="0 0 512 512"
 preserveAspectRatio="xMidYMid meet" class="pfy-icon-show">

<g transform="translate(0,512) scale(0.1,-0.1)"
fill="currentColor" stroke="none">
<path d="M2470 3895 l0 -255 63 0 c34 0 79 -3 100 -6 l37 -7 0 255 0 255 -46
7 c-26 3 -71 6 -100 6 l-54 0 0 -255z"/>
<path d="M1388 3917 c-43 -18 -78 -35 -78 -40 0 -11 181 -451 189 -459 4 -4
48 9 98 29 l92 36 -19 46 c-10 25 -50 125 -90 221 -40 96 -74 181 -77 188 -7
18 -29 14 -115 -21z"/>
<path d="M3541 3713 c-51 -126 -92 -232 -93 -238 0 -12 175 -86 183 -77 18 21
191 464 183 471 -11 10 -159 71 -171 71 -5 0 -51 -102 -102 -227z"/>
<path d="M2375 3424 c-484 -51 -921 -229 -1290 -527 -110 -89 -295 -282 -386
-402 -108 -145 -191 -282 -184 -305 12 -37 184 -287 263 -381 367 -437 887
-724 1477 -815 151 -23 479 -23 630 0 590 91 1109 377 1477 816 79 93 251 343
263 380 14 44 -198 341 -370 519 -138 142 -231 220 -391 327 -278 185 -589
308 -929 365 -116 20 -457 34 -560 23z m-505 -341 c-478 -387 -565 -1082 -195
-1563 24 -31 85 -96 136 -144 50 -47 89 -86 85 -86 -4 0 -46 15 -94 34 -402
155 -761 439 -1002 791 l-59 87 41 62 c214 319 496 566 833 732 106 52 273
122 295 123 3 0 -15 -16 -40 -36z m856 26 c308 -54 574 -267 694 -556 95 -227
91 -502 -9 -726 -93 -208 -289 -395 -502 -480 -119 -48 -193 -61 -339 -61
-146 0 -220 13 -339 61 -216 86 -422 287 -508 495 -71 172 -91 366 -55 538 76
367 358 650 722 725 80 16 256 19 336 4z m609 -30 c375 -145 712 -399 949
-718 121 -163 118 -149 53 -245 -238 -350 -576 -620 -976 -781 -63 -25 -118
-44 -122 -43 -4 2 23 28 59 58 171 142 306 362 363 592 29 117 36 314 15 438
-45 274 -181 510 -399 692 -32 26 -56 48 -53 48 3 0 53 -18 111 -41z"/>
<path d="M2487 2809 c-189 -25 -368 -152 -459 -325 -48 -90 -68 -176 -68 -288
0 -169 56 -302 180 -427 119 -120 260 -179 430 -179 47 0 113 7 145 15 216 55
393 230 450 445 19 73 19 226 -1 303 -37 142 -150 297 -273 371 -117 72 -267
103 -404 85z m83 -297 l0 -49 -54 -12 c-111 -25 -175 -97 -201 -223 -5 -26 -9
-28 -56 -28 l-51 0 7 48 c19 131 119 254 238 291 34 11 74 20 90 20 26 1 27
-1 27 -47z"/>
<path d="M415 3279 c-36 -34 -65 -66 -65 -73 0 -6 80 -91 178 -189 l177 -177
75 75 75 75 -175 175 c-96 96 -180 175 -187 175 -7 0 -42 -28 -78 -61z"/>
<path d="M4445 3150 l-180 -180 73 -72 72 -73 182 182 183 183 -70 70 c-38 38
-72 70 -75 70 -3 0 -86 -81 -185 -180z"/>
</g>
</svg>
